<?xml version="1.0" encoding="UTF-8" standalone="no"?>
<svg
   xmlns:dc="http://purl.org/dc/elements/1.1/"
   xmlns:cc="http://creativecommons.org/ns#"
   xmlns:rdf="http://www.w3.org/1999/02/22-rdf-syntax-ns#"
   xmlns:svg="http://www.w3.org/2000/svg"
   xmlns="http://www.w3.org/2000/svg"
   xmlns:sodipodi="http://sodipodi.sourceforge.net/DTD/sodipodi-0.dtd"
   xmlns:inkscape="http://www.inkscape.org/namespaces/inkscape"
   width="191.36914mm"
   height="113.60516mm"
   viewBox="0 0 191.36914 113.60516"
   version="1.1"
   id="svg1628"
   inkscape:version="1.0.1 (c497b03c, 2020-09-10)"
   sodipodi:docname="tree_poly2.svg">
  <defs
     id="defs1622" />
  <sodipodi:namedview
     id="base"
     pagecolor="#ffffff"
     bordercolor="#666666"
     borderopacity="1.0"
     inkscape:pageopacity="0.0"
     inkscape:pageshadow="2"
     inkscape:zoom="0.35"
     inkscape:cx="255.49195"
     inkscape:cy="446.51668"
     inkscape:document-units="mm"
     inkscape:current-layer="layer1"
     inkscape:document-rotation="0"
     showgrid="false"
     fit-margin-top="0"
     fit-margin-left="0"
     fit-margin-right="0"
     fit-margin-bottom="0"
     inkscape:window-width="1252"
     inkscape:window-height="943"
     inkscape:window-x="0"
     inkscape:window-y="23"
     inkscape:window-maximized="0" />
  <metadata
     id="metadata1625">
    <rdf:RDF>
      <cc:Work
         rdf:about="">
        <dc:format>image/svg+xml</dc:format>
        <dc:type
           rdf:resource="http://purl.org/dc/dcmitype/StillImage" />
        <dc:title></dc:title>
      </cc:Work>
    </rdf:RDF>
  </metadata>
  <g
     inkscape:label="Layer 1"
     inkscape:groupmode="layer"
     id="layer1"
     transform="translate(-38.234421,90.926586)">
    <path
       style="display:inline;fill:#01a34e;fill-opacity:1;stroke:#aaecc9;stroke-width:1.5;stroke-linecap:butt;stroke-linejoin:miter;stroke-miterlimit:4;stroke-dasharray:none;stroke-opacity:1"
       d="m 52.22733,-57.158418 24.5888,-6.949008 20.579756,9.488068 -7.216276,3.340868 7.082637,4.409948 -11.626227,5.34539 -5.74629,0.801809 -20.31248,0.668174 -19.24341,-2.539061 12.02713,-7.884451 -1.33635,-3.741772 z"
       id="path932-9" />
    <path
       style="display:inline;fill:#01a34e;fill-opacity:1;stroke:#aaecc9;stroke-width:1.5;stroke-linecap:butt;stroke-linejoin:miter;stroke-miterlimit:4;stroke-dasharray:none;stroke-opacity:1"
       d="m 67.48274,-61.445726 22.75417,-19.48926 26.93692,-6.69216 34.07686,-2.53906 24.45516,9.35443 -28.59783,15.10073 -18.8425,-1.73725 -47.70566,5.06455 -3.74373,-1.72368 z"
       id="path934-3" />
    <path
       style="display:inline;fill:#018947;fill-opacity:1;stroke:#aaecc9;stroke-width:1.5;stroke-linecap:butt;stroke-linejoin:miter;stroke-miterlimit:4;stroke-dasharray:none;stroke-opacity:1"
       d="m 130.27004,-67.214436 -12.22758,7.717408 2.33861,4.075861 -3.60814,3.006781 0.20045,3.87541 13.02939,2.00452 -2.07134,-4.209494 16.23662,-6.68174 -0.13363,-3.942226 7.94589,-2.47224 38.559,-6.21402 12.02713,10.891235 5.67948,1.469982 13.76438,-8.084907 -16.16981,-4.07586 3.94223,-2.00452 -2.00452,-3.40768 -6.74856,-2.40543 7.21628,-4.47677 -23.052,-2.80633 -17.10524,1.20272 7.61717,2.93996 -28.59783,15.10073 z"
       id="path936-8" />
    <path
       style="display:inline;fill:#01a34e;fill-opacity:1;stroke:#aaecc9;stroke-width:1.5;stroke-linecap:butt;stroke-linejoin:miter;stroke-miterlimit:4;stroke-dasharray:none;stroke-opacity:1"
       d="m 130.00277,-46.534456 2.50565,4.744032 19.10977,-0.06682 21.87656,1.514234 4.53571,0.377976 32.03349,-0.850448 18.52083,-3.590774 -3.49628,-9.165924 -16.84258,-4.120784 -5.67948,-1.469986 -12.02713,-10.891226 -38.559,6.21401 -7.94589,2.47225 0.13363,3.94222 -16.23662,6.681738 z"
       id="path938" />
    <path
       style="display:inline;fill:#018947;fill-opacity:1;stroke:#aaecc9;stroke-width:1.5;stroke-linecap:butt;stroke-linejoin:miter;stroke-miterlimit:4;stroke-dasharray:none;stroke-opacity:1"
       d="m 151.61819,-41.857241 -12.99174,2.648164 1.03943,3.118302 -6.3311,1.322917 0.28348,2.362353 5.95313,0.944939 25.60788,-9.449404 z"
       id="path940-0" />
    <path
       style="display:inline;fill:#018947;fill-opacity:1;stroke:#aaecc9;stroke-width:1.5;stroke-linecap:butt;stroke-linejoin:miter;stroke-miterlimit:4;stroke-dasharray:none;stroke-opacity:1"
       d="m 172.92779,-40.437501 -21.92262,9.921875 35.52976,2.645834 3.1183,-2.456844 -5.19717,-3.212799 4.91369,-2.83482 -3.87426,-3.874256 -7.46503,0.28348 z"
       id="path942-2" />
    <path
       style="display:inline;fill:#744231;fill-opacity:1;stroke:#aaecc9;stroke-width:1.5;stroke-linecap:butt;stroke-linejoin:miter;stroke-miterlimit:4;stroke-dasharray:none;stroke-opacity:1"
       d="m 107.91588,-65.383926 6.04762,16.63095 -1.7009,24.19047 6.33111,17.6703914 5.95312,-19.6547614 15.02456,-4.91369 25.60788,-9.449404 7.74852,0.472469 -21.92262,9.921875 -21.63914,9.071431 -5.95313,18.8043104 0.47248,24.5684596 h -9.16593 L 111.79013,0.28943636 102.52972,-16.813984 79.88973,-40.721343 l 5.74629,-0.801812 22.09087,20.929399 7.65402,13.2291724 -7.46503,-14.3630914 1.5119,-25.607891 -6.70907,-17.4814 z"
       id="path944-4" />
  </g>
</svg>
