<?xml version="1.0" encoding="UTF-8" standalone="no"?>
<svg
   xmlns:dc="http://purl.org/dc/elements/1.1/"
   xmlns:cc="http://creativecommons.org/ns#"
   xmlns:rdf="http://www.w3.org/1999/02/22-rdf-syntax-ns#"
   xmlns:svg="http://www.w3.org/2000/svg"
   xmlns="http://www.w3.org/2000/svg"
   xmlns:sodipodi="http://sodipodi.sourceforge.net/DTD/sodipodi-0.dtd"
   xmlns:inkscape="http://www.inkscape.org/namespaces/inkscape"
   width="154.88902mm"
   height="106.07162mm"
   viewBox="0 0 154.88902 106.07162"
   version="1.1"
   id="svg2869"
   inkscape:version="1.0.1 (c497b03c, 2020-09-10)"
   sodipodi:docname="tree_poly4.svg">
  <defs
     id="defs2863" />
  <sodipodi:namedview
     id="base"
     pagecolor="#ffffff"
     bordercolor="#666666"
     borderopacity="1.0"
     inkscape:pageopacity="0.0"
     inkscape:pageshadow="2"
     inkscape:zoom="0.35"
     inkscape:cx="292.70365"
     inkscape:cy="200.4503"
     inkscape:document-units="mm"
     inkscape:current-layer="layer1"
     inkscape:document-rotation="0"
     showgrid="false"
     fit-margin-top="0"
     fit-margin-left="0"
     fit-margin-right="0"
     fit-margin-bottom="0"
     inkscape:window-width="1252"
     inkscape:window-height="943"
     inkscape:window-x="0"
     inkscape:window-y="23"
     inkscape:window-maximized="0" />
  <metadata
     id="metadata2866">
    <rdf:RDF>
      <cc:Work
         rdf:about="">
        <dc:format>image/svg+xml</dc:format>
        <dc:type
           rdf:resource="http://purl.org/dc/dcmitype/StillImage" />
        <dc:title></dc:title>
      </cc:Work>
    </rdf:RDF>
  </metadata>
  <g
     inkscape:label="Layer 1"
     inkscape:groupmode="layer"
     id="layer1"
     transform="translate(-28.388826,-95.130857)">
    <path
       style="display:inline;fill:#01a34e;fill-opacity:1;stroke:#aaecc9;stroke-width:1.5;stroke-linecap:butt;stroke-linejoin:miter;stroke-miterlimit:4;stroke-dasharray:none;stroke-opacity:1"
       d="m 42.563454,119.26957 0.66146,-5.57514 7.60677,-8.26823 10.583341,-0.33073 -0.0945,-4.48847 4.11049,-2.64583 21.96987,-2.078869 15.071805,0.614209 -2.07887,2.55134 h 26.78907 l 2.69307,2.22061 -1.93713,3.82701 -1.55916,0.56696 -2.69307,-2.3151 -25.938616,8.88244 -2.078868,7.37053 11.103054,3.59078 7.79576,-0.51972 -8.31549,6.99256 -25.418895,-0.18899 10.819569,-8.26823 -12.992928,-3.68526 -0.0945,-3.26005 -5.197182,0.56696 -9.874628,4.25224 -8.50446,-4.9137 z"
       id="path952" />
    <path
       style="display:inline;fill:#018947;fill-opacity:1;stroke:#aaecc9;stroke-width:1.5;stroke-linecap:butt;stroke-linejoin:miter;stroke-miterlimit:4;stroke-dasharray:none;stroke-opacity:1"
       d="m 42.563454,119.26957 0.0472,3.26005 -13.04018,5.90588 -0.37797,5.29166 37.041661,1.18118 7.984749,-0.94494 6.614581,-4.48847 10.819569,-8.26823 -12.992928,-3.68526 -0.0945,-3.26005 -5.197178,0.56696 -9.874631,4.25224 -8.50446,-4.9137 z"
       id="path954" />
    <path
       style="display:inline;fill:#01a34e;fill-opacity:1;stroke:#aaecc9;stroke-width:1.5;stroke-linecap:butt;stroke-linejoin:miter;stroke-miterlimit:4;stroke-dasharray:none;stroke-opacity:1"
       d="m 127.93883,105.09547 10.86681,-3.54353 16.86719,-1.27567 2.5041,2.3151 7.32329,0.61422 2.31511,2.83482 -4.15775,5.05543 -13.84337,2.78757 -12.47322,4.91369 -19.7965,1.93713 -2.97656,1.93713 -7.79576,0.51972 -11.103054,-3.59078 2.078868,-7.37053 25.938616,-8.88244 2.69307,2.3151 z"
       id="path956" />
    <path
       style="display:inline;fill:#018947;fill-opacity:1;stroke:#aaecc9;stroke-width:1.5;stroke-linecap:butt;stroke-linejoin:miter;stroke-miterlimit:4;stroke-dasharray:none;stroke-opacity:1"
       d="m 106.25244,129.66392 0.85045,4.25223 16.34747,-1.88988 8.78795,2.45685 11.52827,-0.47248 29.90736,-4.58295 8.83521,-7.37054 -0.0945,-1.79539 -20.45798,-1.37016 -12.14247,-5.00819 -12.47322,4.91369 -19.79651,1.93713 -2.97656,1.93713 z"
       id="path958" />
    <path
       style="display:inline;fill:#744231;fill-opacity:1;stroke:#aaecc9;stroke-width:1.5;stroke-linecap:butt;stroke-linejoin:miter;stroke-miterlimit:4;stroke-dasharray:none;stroke-opacity:1"
       d="m 103.18139,200.20374 -2.07886,-22.58409 3.0238,-20.88319 26.13859,-22.783 -4.47675,-1.30294 -27.161285,19.71113 -9.22079,-5.21176 -4.643811,-7.3165 -8.485809,-7.24969 -2.057561,1.3797 -7.984749,0.94494 12.715009,6.19458 1.1693,5.04471 14.633011,12.42803 -0.434321,19.47727 -5.378799,22.38382 z"
       id="path960" />
  </g>
</svg>
